<svg xmlns="http://www.w3.org/2000/svg" viewBox="0.5 50.5 300 300"><linearGradient id="a" x1="422.9" x2="422.9" y1="-648.6" y2="-446.2" gradientUnits="userSpaceOnUse" gradientTransform="matrix(1 0 0 -1 -272.5 -345)"><stop offset="0" stop-color="#F4B721"/><stop offset=".2" stop-color="#F3A627"/><stop offset=".4" stop-color="#F08426"/><stop offset=".6" stop-color="#EF7429"/><stop offset="1" stop-color="#EF4B26"/></linearGradient><circle cx="150.4" cy="202.4" r="101.2" fill="url(#a)"/><path fill="#231F20" d="M125.2 262.8c-3.4 2.6-7.2 3.4-11 3.4-3.7 0-7.5-.8-10.5-1.3-.3-.2-.7-.2-1-.2-3.4 0-6.2 2-10 4s-8.5 3.7-15 3.7H75c-6.5-.6-13-2.8-18.2-5.2 20.5 29.3 54.8 19.6 93.5 19.6 38.8 0 73 9.5 93.7-20-6 2.6-14 5.3-22.3 5.6h-1.3c-9.2 0-12.5-3-18.4-5.8-2.4-1-4.6-1.5-6.7-1.5-3.3 0-6.2.8-9.7.8-3.2 0-7-.5-12.2-3.2-9.7-5-14-13.5-15.8-18-.2-.7-.6-2.8-.7-5.6-.3-2.8-.3-6.3-.3-10.2 0-15.5 1-36.5 1.2-38.8-.3-.8 1.8-3 4.6-5 2.7-2.2 6-4.7 8.3-7.4 2-2.7 3.8-6 5.8-8.6 2-2.6 4-4.5 6-4.8l3-.2c4 0 9.4.8 14 .8 1.5 0 3 0 4.3-.4 3.8-.8 6.5-1.7 7.8-2.2 1.2 1.4 3 2.4 6 2.3 1 0 2.3.6 3.4 1.3l1.6 1c.6.3 1 .6 2 .7.8 0 1.7-1 1.8-1.6l.2-1.6c0-2.2-1.4-4.2-3.7-4.7h-.3v-.4c0-.6.4-2 1.5-4.4 1.4-3 2-4 2-6 0-1.6-1-2.2-1.5-3-.7-.5-1.4-1-1.7-1.6-1.3-1.8-2.7-2.7-4-3-1.4-.4-2.4-.3-3.4-.5-.3-.2-.4-.3-.6-.7-.2-.5-.3-1.2-.3-2 0-1 0-2 .2-3l.2-4c0-1.6-.2-3.4-.8-5.2-.4-1.3-1.6-2.2-2.8-2.7-1-.4-2.4-.5-3.6-.5l-4.2.2h-.8c-1 0-2 0-2.3-.4-.4-.4-.8-1-1-2 0-1.2-.4-2-1.2-2.7-.8-.7-1.6-.7-2.2-.7h-1.9v-4.3c0-1.4-.3-2.6-1.2-3.4-1-.8-2-1-3-1-2 0-4 .8-5 .8v-3.8c0-2-1.3-3.7-2.8-4.6-1.6-.8-3.4-1.2-5.3-1.4-1.3-.2-2.2-.6-2.6-1-.3-.3-.6-.7-.6-2 0-.5 0-1 .2-1.7v-1c0-2.4-1.3-4.3-3-5.5-2-1-4.2-1.7-6.4-1.7h-.7c-1.4 0-2.2-.3-3-.7-.7-.2-1.3-.8-2.6-.8-.8 0-1.6.4-2.2 1-1.6 1.5-2.4 2.2-2.7 2l-1-.2c-1-.5-2.2-1-3.5-1-1.6 0-3.7 1.2-3.8 3.4v.4c0 2 1.3 2.8 2 3.6 1 1 1.4 1.5 1.4 2.3 0 .4 0 1-.4 1.6-.7 1.2-1 1.3-2 1.4-1.4 0-3.3-.8-5-1-.8 0-1.8.4-2.5 1.2-.6.6-1 1.5-1 2.4.2 1.6.8 2.7.8 5 0 .8 0 1.5-.2 2.4v1c-.5-.3-1.8-1-3.2-2-1.6-1-3.6-2-6-2.2 0-1.6-.5-2.7-1-3.6-.7-1-2-1.7-2.8-1.6-1 0-1.7.3-2.2.5h-.2c-.3-.5-.4-1-.4-1.6l.2-2.7c0-.5 0-1-.4-1.7-.5-.6-1.3-1-2-1-.2 0-.4 0-.7.2-3 .6-5.4 3.5-8 6.2-1 1.4-2 2.7-3 3.8-.8 1-1.7 1.8-1.7 1.8-.4.2-1 .3-1.5.3-1 0-3-.5-5.4-.8H99c-1 0-2.2.7-2.7 1.6-.4 1-.5 2-.5 2.7l.2 3.3v.4l-2.5 1.8c-1.3 1-2.7 2.7-2.7 5.3 0 2.3 0 3.8.3 5.2.4 1.4 1.2 2.5 2.4 3.5-.8.5-2.4 1.6-3 3.8v.8h-2c-.5 0-1.4 0-2.3.2-1 .2-1.7.5-2.4 1-.6.6-1 1.5-1 2.2.2 1.7 1 3 1 4v.6c0 1.7-.2 2.6-3.2 4.4-1.7 1-2.7 2.3-2.7 3.8 0 1.8 1 3 1.3 4.7v1c0 .2-2 .6-2.5 2.5l-.3 1c0 1 .6 1.8 1.2 2 .8.5 1.5.5 2 .7.6 0 1 .2 1 .3 0 0 .3 1.6.4 3.4.2 1.7.5 4 2.5 5.3 1.5 1 3.2 1.6 5 1.6 1.7 0 3.5-.8 4.4-2.6.2-.5 1-.8 2.7-1 1.7 0 3.8 0 6-.6 2-.6 3.4-1.8 4-3.4.8-1.5 1-3.2 1.2-5 .4-3.3 1.3-4.2 3.2-4.5-.2.2-.5.7-.5 1.2 0 .7.4 1 .7 1.4 1 1 2.4 1.7 5.7 3 5.2 2 8 3 9.6 3.8 1.7.8 2.6 1.6 4.6 4 1.7 2.2 3.8 7.3 5.7 13 2 5.8 3.8 12.3 5.3 17.2 1.2 4 1.8 11.7 1.8 19.7 0 9.7-.8 20-2 25.2-1.7 9-8 12-15.6 17.8zm59-116c2 0 4 1 5.8 2 1.8 1 3.6 2.2 5.8 2.4-.4.8-1 2-1 3.5 0 .5 0 1 .3 1.6.4 1.6 2 2.7 3.3 2.6 2.8-.2 6-2.5 7.6-3h1c1 0 2 .7 2.8 2-1.8.6-5 1.5-9 1.5h-1.3c-4.3-.2-10.2-.8-14.6-.8-2 0-3.7 0-5 .5-3.7 1.2-6.2 4.7-8.8 8.2-2.7 3.7-5.4 7.5-8.7 9.7-2 1.5-3.7 2.6-4.8 3.3l-.6.3c.2-1 .4-2.4.4-4.3 0-6 .7-8.7 2.2-11 1.4-2 4-4 8-8.2 7.6-8 9-7.3 13-9.4 1.5-.6 2.6-1 3.7-1zm-18.7-4.6c2-1.6 4-2 6-2l3 .2c.7 0 2 .2 2.8.6.2 0 .3 0 .5.2l-4.5 2.8c-3 2.7-4.5 3.6-8.2 6.8-1.5 1.4-3.3 3.7-5 5.6l-1.7 2-.2-2.2c0-.5 0-1 .3-2 .6-3.7 2.8-8.4 7.2-12zM159 134c1 0 2.3.4 3 .8.7.3 1 .6 1 .7-.2 2.8-1.7 4.6-4 7.4l-2.4 2.4-1-12c.8 0 2 .3 3.3.5zm-46-4.6l1-2.3c.6-.8 1.4-1.5 1.7-1.6.5 0 2.2.4 3.5 1 1.4.7 2.2 1.7 2 2-.2 2-1 2.8-1.8 7.4-1.2-1.5-2.6-2.6-3.7-3.4-1-.7-1.7-1.3-2-1.7-.6-.5-.7-.7-.7-1v-.3zm6.8 29.2l-6.3-2.6h-1.4c2.4-1.3 4.4-3.8 4.5-7v-1.2c-.2-.3-.2-.6-.2-.8 0-1.8 1.3-2.4 2.3-2.5h.3c1.2 1 3.4 5.4 4.8 9l2.3 5.2c.5.8.8 1.7 1 2.3l-7.2-2.4zm11.7.5l-.6-.6c-1.2-1.5-2.5-5.3-4-9.2-2.6-6-2.8-8.7-3-12.6v-.3c0-1.3.4-3.4 1-5 .8-1.6 1.8-2.4 2.5-2.4.6 0 1.5.3 3 1.6.5.6 1 1.3 2 1.4 1.4-.2 1.7-1 2.4-1.5.5-.7 1.4-1.6 2.8-3 1.2-1 2-1.3 2.3-1.3v.2c0 .4 0 1-.5 1.8-.7 1.4-1 2.2-1 3.2 0 1.3.3 1.6.5 2.7.2 1.7.4 2.7.4 5.3 0 1.6 0 3.7-.4 7-.6 7.7-6.6 12.2-7.5 12.8zm5 10c-.4-2.4-1.2-3.4-1-3.7 0-.2 0-1 1.6-3 3.5-4.4 6-7.3 6.5-12 0-1.3.4-4.6 1.2-7.5.4-1.4 1-2.8 1.5-3.7.7-.8 1.2-1 1.6-1h.2c.3 0 .4 0 .7.2 1 1.2 1.8 6 2 11v15.3c0 5-.3 14-1 22.2-.2 4-.6 8-1 10.8 0 1 0 2-.3 2.8l-.8-2.3c-1-2.5-2.2-5.8-4-9.8-4.5-10.3-7-16-7.2-19.5z"/><linearGradient id="b" x1="422.9" x2="422.9" y1="-660.8" y2="-431.5" gradientUnits="userSpaceOnUse" gradientTransform="matrix(1 0 0 -1 -272.5 -345)"><stop offset="0" stop-color="#B7CE35"/><stop offset=".2" stop-color="#71AD44"/><stop offset=".3" stop-color="#3A9949"/><stop offset=".5" stop-color="#479952"/><stop offset=".7" stop-color="#459B66"/><stop offset=".8" stop-color="#319380"/><stop offset="1" stop-color="#0982A8"/></linearGradient><path fill="url(#b)" d="M126 264c-7.4 5.6-16.6 3-22.5 2.2-6-1-12.2 8.7-28.6 7.5-6-.4-11.7-2.2-16.6-4.3 20.6 28 54.2 46.4 92 46.4s71.4-18.4 92-46.7c-5.6 2.5-13 4.7-20.7 5-10.5.2-14.3-3-20.3-6-9-4.4-13.6 3.7-28.6-4-10-5.3-14.5-14-16.4-18.7-2.4-6 0-51.6 0-55.2.4-3.5 9.4-8 13.4-13 4-5.2 7.4-13 12.7-14 5.4-.8 15.8 1.5 21.3.3 5.5-1 8.5-2.6 8.5-2.6 1 1.7 2.3 2.7 5.4 2.7 4 0 7 4.6 7.6 2.4.6-2.3-.3-4.3-2.5-4.8-2-.4-2-2.2.2-6.7 1.5-3 2-3.7 2-5.4 0-1.3-2-2.4-3-3.8-2.5-3.4-4.3-2.5-6.7-3-2.5-.5-2-4.6-1.7-7 .3-2.4.6-5.6-.4-8.7-1-3.2-6.4-2.3-9.4-2-3 0-5-.6-5.4-3.8-.4-3.2-2.2-1.5-4.6-2.3-.7-.2-1 .5-.7-5 .4-5.8-6-2.3-8-2.7-2.2-.4-.7-1.4-1-4.8-.4-3.6-3.4-4.6-7-5-3.7-.7-5-2-4.4-6.3.6-4.4-4-6.7-8.5-6.6-4.4.3-5-2.8-7-1-2.2 2-3 3.2-5.2 2.2-2-1-5.2-1.5-5.5 1.3-.4 2.8 5 3.5 3 8.3-2.3 5-8-.2-9.7 2-1.7 2 .6 3.2-.2 9-.8 6-5.6-2.6-11.7-2-.7-8.6-5-3.6-5.7-4.3-2.7-3 1-7.6-2.4-7-4.4.7-10.5 10.7-12.4 11.7-2 1-4.2 0-7.8-.3-3.6-.6-1.7 5-2 6.7-.5 1.7-5.3 2.3-5.3 6.8.2 4.5 0 6 2.4 7.7 2.3 1.8-2 2-2.6 5-.6 3.2-1.4 1.3-5.5 2-4 1-1.5 3.3-1.3 5.8.2 2.4-.3 4.3-4 6.4-3.5 2-1.4 3.7-.7 7 .6 3.4-1.7 2-2.6 4.3-1 2.4 2.5 1.2 3.7 2.8 1.2 1.5 0 6.5 2.6 8.4 2.8 1.8 6.3 2 7.5-.6 1.3-2.5 5.8-1.2 9.4-2.3 3.5-1 4-3.5 4.3-7 .3-3.7 1.8-5.6 4.5-5.8 2.7-.3 6-3.5 5.3-7-.6-3.8 2.3-5.3 4.2-5 1.8.4 4 5.6 5.8 10 1.7 4 4.6 9 3 9.2-2 .4-15-5.2-15-5.2s-7-.5 3.2 3.6c10.3 4 10.7 3.3 14.8 8.2 4 5 8.2 20.8 11.2 30.6s2 35.7 0 45.5c-2 10-8.8 13-16.2 19zm70.3-114c3 0-1 2 0 6 1 3.8 6.3-.3 9.3-1.2 3-.8 5 1.3 6 4l-.5.3c-1.3.4-5.7 2-11.5 1.8-6.3-.3-15.8-1.4-19-.4-6.2 2-10 13-17.2 17.8-9.7 6.4-7.3 5.4-7.3-2 0-12.2 3-11.8 10.6-20 7.7-8.2 9.7-8 13.5-9.7 7.5-3.7 11.5 3.3 16.3 3.4zm-21.8-11c1.8 0 5 1 5.4 2.7-2.2 1-4.5 2.2-6 3.3-3 2.7-4.4 3.6-8 6.8-3.6 3-8.7 11.3-9 8-.2-2.8-.4-3.4 0-5.8.6-4 3-9 7.6-12.8 3.7-3 8.2-2.2 10-2zm-10.3-3.5c0 3.4-2 5.5-4.2 8.3-2.4 2.8-4.5 4.3-4.5 4.3l-1.5-16s10.3.2 10.2 3.5zm-44 4.2c-3-6.7-9-7-8.5-10.5.2-1 2-4.6 3.7-5 1.2-.4 7.6 1.6 7.2 4.4-.4 3-1.5 3-2.4 11zm5.5 10c-2.5-6.2-3-9-3-13s2.6-13.2 8.6-7c2 2 1.4.8 5.6-3 4.2-4 5.5-.8 3.7 2.2-1.8 3-.7 2.5-.4 5 .3 2.4.8 4 0 12.4-.6 8.4-7 13-8 13.8-2.4 1.4-4-4.3-6.6-10.5zm16.8 39.3c-4.6-10.3-7-16-7.4-20-.4-3.7-2.3-3 1-7.5 3.5-4.5 5.7-7 6.2-11.5.2-2.3 1.3-13.4 5.6-13.4 5.3-.7 4 18.5 4.3 26.4.5 8-1.7 38.4-2.8 40.3-1 2-2.2-4-6.7-14.3z"/><path fill="#FFF" d="M297.3 210c0 17-14 30.5-31 30.5H34.7c-17 0-31-13.6-31-30.4 0-16.7 14-30.3 31-30.3h231.4c17 0 31 13.6 31 30.4z"/><path fill="#477C3C" d="M93 224.7v-3.4c-2.2 2-5 3.8-9.5 3.8-7 0-11-3.2-11-8.7V201h9.2v13.2c0 3.2 2 4.8 5.5 4.8s5.7-1.6 5.7-4.8V201h9v23.7h-9zm54.4 0v-13.2c0-3.2-2-5-5.3-5-3.4 0-5.5 1.8-5.5 5v13.2h-9v-13.2c0-3.2-2-5-5.4-5s-5.4 1.8-5.4 5v13.2h-9V201h9v3.3c2-2 4.8-3.8 9.4-3.8 4.2 0 7.4 1.4 9 3.8 3-2.4 6.3-3.8 10.6-3.8 6.8 0 11 3 11 8.8v15.4h-9.2zm-1.8-24.2c6.8 0 11 3 11 8.8v15.4m17.1.3c-5.6 0-9.3-1.5-9.3-7v-11.3h-4V201h4v-6h9v6h7.6v5.7h-7.5V217c0 1.4 1 2.2 3 2.2 1.6 0 3-.3 4.4-1v5.5c-2 1-4.2 1.4-7.3 1.4zm36-23.8c-1.4-.4-3-.7-4.7-.7-4.6 0-7.3 1.8-9.4 3.8V201h-9v23.7h9v-11.2c0-3.2 2-6.8 5.7-7 1 0 1.7.3 2.4.5 1-1.6 2-3 3.6-4.3l2.4-1.5zm13.1-.7c-9 0-15.5 5.6-15.5 12.4 0 4 2 7 5 9.3 2.6 2 6 3 10.4 3 6.7 0 12-2.8 14.4-7.3h-7.8c-2 1.3-3.8 1.8-6.3 1.8-4 0-6.5-1.6-7.4-4.6h22.6v-1.7c0-6.8-5.5-13-15.4-13zm-7.3 10.5c.7-3 4-5 7.4-5 3.5 0 6.4 2 7 5h-14.5zM49 199.5c5 0 6.7 1.6 9 3.7h9.2c-3.4-5.7-8.3-10-17.8-10-12.7 0-22 7.3-22 16v.2c0 9 9 16 22 16 7.7 0 13.6-2.3 18-5V207H49v5.8h9.4v4.5c-2.3 1.2-5.3 1.8-8.7 1.8-7.4 0-12.7-4-12.7-9.7 0-5.4 5.3-9.8 12-9.8zm208.3 1c-9 0-15.5 5.6-15.5 12.4 0 4 2 7 5 9.3 2.6 2 6 3 10.5 3 6.6 0 12-2.8 14.3-7.3h-8c-2 1.3-3.7 1.8-6.2 1.8-3.7 0-6.4-1.6-7.2-4.6h22.5v-1.7c0-6.8-5.5-13-15.4-13zM250 211c.7-3 4-5 7.4-5 3.6 0 6.5 2 7 5H250z"/><path fill="#477C3C" d="M266 243.7H35c-19 0-34.3-15-34.3-33.6 0-18.5 15.4-33.6 34.3-33.6h231.4c19 0 34.3 15 34.3 33.7 0 18.6-15.4 33.7-34.4 33.7zM35 183c-15.5 0-28 12-28 27s12.5 27.2 27.8 27.2h231.4c15.3 0 27.8-12.2 27.8-27 0-15-12.5-27.3-28-27.3H35z"/></svg>